# xmcd
#
# Track frame offsets: 
#        150
#        24470
#        45243
#        58720
#        83771
#        97032
#        117859
#        138429
#        157196
#        181226
#        200598
#        220072
#        237459
#        252533
#        266766
#        290742
#        304015
#        326042
#
# Disc length: 4780 seconds
#
# Revision: 0
# Processed by: cddbd v1.5.2PL0 Copyright (c) Steve Scherf et al.
# Submitted via: ExactAudioCopy v0.90b4
#
DISCID=0e12aa12
DTITLE=Various Artist - Essential Blue Note [CD2]
DYEAR=2009
DGENRE=Jazz
TTITLE0=Dianne Reeves - Lovin' You
TTITLE1=Gonzalo Rubalcaba - Los bueyes
TTITLE2=Dinah Washington - Lover Man
TTITLE3=Wayne Shorter - Lady Day
TTITLE4=Amos Lee - Baby I Want You
TTITLE5=Charles Mingus - Summertime
TTITLE6=US3 - Cantaloop
TTITLE7=Duke Ellington - Caravan
TTITLE8=Cassandra Wilson - I Can't Stand the Rain
TTITLE9=Keren Ann - Hallelujah
TTITLE10=Art Blakey - Yesterdays
TTITLE11=Joe Lovano - In Other Words
TTITLE12=The Bird and the Bee - How Deep Is Your Love
TTITLE13=Lila Downs - Black Magic Woman
TTITLE14=Dexter Gordon - I Guess I'll Hang My Tears Out to Try
TTITLE15=Thelonious Monk - Straight No Chaser
TTITLE16=Jimmy Smith - Mack the Knife
TTITLE17=John Coltrane - Locomotion
EXTD=
EXTT0=
EXTT1=
EXTT2=
EXTT3=
EXTT4=
EXTT5=
EXTT6=
EXTT7=
EXTT8=
EXTT9=
EXTT10=
EXTT11=
EXTT12=
EXTT13=
EXTT14=
EXTT15=
EXTT16=
EXTT17=
PLAYORDER=
